<svg xmlns="http://www.w3.org/2000/svg" width="200" height="200" viewBox="0 0 200 200" fill="none"><g clip-path="url(#clip0_227_47)"><path d="M77.3164 27.5371L87.5703 40.8672C66.151 52.0326 52.2513 61.7168 45.8711 69.9199C39.4909 77.8952 36.3008 86.7819 36.3008 96.5801C36.3008 104.555 38.0098 110.024 41.4277 112.986C44.8457 115.721 49.6309 117.316 55.7832 117.771C75.1517 119.822 84.9499 128.367 85.1777 143.406C85.1777 151.837 82.2155 158.901 76.291 164.598C70.5944 170.294 62.6191 173.143 52.3652 173.143C40.0605 172.687 29.6927 167.674 21.2617 158.104C12.8307 148.305 8.5013 133.608 8.27344 114.012C8.27344 93.0482 14.8815 75.1608 28.0977 60.3496C41.3138 45.5384 57.7201 34.6009 77.3164 27.5371ZM179.855 27.5371L190.109 40.8672C168.69 52.0326 154.79 61.7168 148.41 69.9199C142.03 77.8952 138.84 86.7819 138.84 96.5801C138.84 104.555 140.549 110.024 143.967 112.986C147.385 115.721 152.17 117.316 158.322 117.771C177.691 119.822 187.489 128.367 187.717 143.406C187.717 151.837 184.755 158.901 178.83 164.598C173.133 170.294 165.158 173.143 154.904 173.143C142.6 172.687 132.232 167.674 123.801 158.104C115.37 148.305 111.04 133.608 110.812 114.012C110.812 93.0482 117.421 75.1608 130.637 60.3496C143.853 45.5384 160.259 34.6009 179.855 27.5371Z" fill="#E5B80B"></path></g><defs><clipPath id="clip0_227_47"><rect width="200" height="200" fill="white"></rect></clipPath></defs></svg>