<svg xmlns="http://www.w3.org/2000/svg" width="800" height="800" viewBox="0 0 800 800" fill="none"><path d="M698.964 66.3453C657.006 24.2563 601.411 0.700035 542.415 0.0156603C500.832 -0.470277 460.186 10.45 424.711 31.5907C409.467 40.6703 390.536 40.6703 375.293 31.5907C339.817 10.45 299.14 -0.443715 257.586 0.0140978C198.59 0.700035 142.993 24.2563 101.034 66.3438C59.0778 108.43 35.6903 164.1 35.1825 223.098C34.7559 272.62 50.1122 319.728 79.5919 359.33C109.314 399.258 129.595 447.441 138.243 498.672C151.372 576.439 170.022 647.819 190.759 699.664C217.767 767.18 246.898 800 279.815 800C292.134 800 303.592 795.013 312.953 785.577C344.765 753.509 357.17 669.072 355.772 494.128C355.481 458.008 371.593 424.281 400 401.52C428.401 424.27 444.517 458.002 444.228 494.128C442.828 669.07 455.234 753.508 487.047 785.577C496.407 795.013 507.867 800 520.184 800C553.101 800 582.234 767.18 609.239 699.666C629.976 647.819 648.626 576.439 661.753 498.673C670.401 447.444 690.684 399.259 720.404 359.333C749.884 319.731 765.24 272.622 764.814 223.102C764.307 164.103 740.922 108.433 698.964 66.3453ZM694.839 340.3C662.118 384.253 639.811 437.184 630.328 493.366C600.203 671.831 551.097 768.128 520.184 768.128C517.6 768.128 514.068 767.559 509.673 763.13C474.236 727.406 475.59 558.113 476.1 494.383C476.47 448.256 455.851 405.231 419.55 376.345L419.012 375.917C413.415 371.431 406.707 369.189 400 369.189C393.292 369.189 386.582 371.433 380.982 375.919L380.464 376.333C344.148 405.228 323.531 448.256 323.9 494.383C324.407 558.116 325.761 727.408 290.323 763.13C285.928 767.561 282.398 768.13 279.814 768.13C248.904 768.13 199.798 671.833 169.67 493.37C160.186 437.188 137.879 384.258 105.159 340.303C79.8653 306.322 66.6887 265.891 67.0544 223.377C67.9544 119.002 153.593 33.1016 257.953 31.8907C293.601 31.4828 328.54 40.8422 358.975 58.9766C384.278 74.0516 415.715 74.0532 441.022 58.9766C471.453 40.8422 506.409 31.4532 542.043 31.8907C646.407 33.1016 732.047 119.003 732.943 223.38C733.311 265.888 720.132 306.32 694.839 340.3Z" fill="black" fill-opacity="0.01"></path><path d="M205.467 79.1094C201.506 71.2469 191.922 68.0844 184.064 72.0469C127.252 100.669 91.619 157.723 91.0768 220.945C91.0018 229.745 98.0736 236.942 106.877 237.017C106.924 237.017 106.971 237.017 107.017 237.017C115.753 237.017 122.874 229.972 122.949 221.22C123.389 169.992 152.303 123.738 198.405 100.513C206.266 96.5516 209.427 86.9688 205.467 79.1094Z" fill="black" fill-opacity="0.01"></path><path d="M257.314 54.1937C252.286 54.2531 247.205 54.5406 242.21 55.0499C233.455 55.9421 227.08 63.764 227.972 72.5187C228.806 80.7265 235.731 86.8406 243.806 86.8406C244.347 86.8406 244.892 86.814 245.441 86.7578C249.488 86.3453 253.606 86.1124 257.684 86.064C266.486 85.9624 273.536 78.7421 273.435 69.9421C273.333 61.1421 266.128 54.1124 257.314 54.1937Z" fill="black" fill-opacity="0.01"></path></svg>